<?xml version="1.0" standalone="no"?>
<!DOCTYPE svg PUBLIC "-//W3C//DTD SVG 20010904//EN"
 "http://www.w3.org/TR/2001/REC-SVG-20010904/DTD/svg10.dtd">
<svg version="1.0" xmlns="http://www.w3.org/2000/svg"
 width="2654.000000pt" height="2654.000000pt" viewBox="0 0 2654.000000 2654.000000"
 preserveAspectRatio="xMidYMid meet">
<metadata>
Created by potrace 1.14, written by Peter Selinger 2001-2017
</metadata>
<g transform="translate(0.000000,2654.000000) scale(0.100000,-0.100000)"
fill="#000000" stroke="none">
<path d="M18465 26481 c-11 -5 -49 -40 -84 -77 -35 -38 -134 -143 -220 -233
-86 -90 -174 -183 -196 -206 -22 -24 -106 -112 -186 -196 -81 -85 -166 -174
-189 -199 -23 -25 -111 -117 -195 -205 -84 -88 -170 -179 -191 -201 -21 -23
-106 -113 -189 -199 -82 -87 -163 -172 -180 -190 -16 -17 -106 -112 -200 -210
-93 -98 -210 -221 -260 -274 -49 -52 -106 -111 -125 -131 -19 -20 -75 -79
-124 -131 -49 -52 -128 -135 -175 -184 -47 -50 -165 -173 -261 -275 -96 -101
-215 -226 -264 -277 -138 -144 -151 -160 -164 -206 -11 -39 -189 -723 -197
-757 -6 -26 -104 -408 -146 -568 -22 -85 -42 -161 -44 -170 -2 -10 -20 -78
-39 -152 -58 -217 -188 -721 -199 -772 l-11 -47 -110 4 c-409 16 -1554 21
-2056 10 -330 -7 -618 -15 -735 -20 -55 -3 -161 -7 -235 -10 -136 -5 -308 -13
-410 -20 -30 -2 -111 -6 -180 -10 -69 -3 -145 -8 -170 -10 -49 -4 -176 -13
-280 -20 -36 -2 -96 -7 -135 -10 -38 -3 -93 -8 -121 -10 -49 -4 -134 -11 -234
-20 -25 -3 -65 -7 -90 -9 -25 -3 -76 -8 -115 -12 -38 -3 -81 -7 -95 -9 -14 -2
-54 -6 -90 -9 -36 -3 -81 -8 -100 -11 -100 -13 -201 -25 -250 -30 -30 -3 -62
-8 -70 -10 -8 -2 -44 -7 -80 -10 -36 -4 -67 -8 -70 -10 -3 -2 -30 -6 -60 -10
-44 -5 -273 -42 -445 -71 -358 -62 -755 -172 -950 -264 -317 -149 -322 -304
-15 -452 190 -91 312 -130 632 -202 86 -20 174 -38 195 -41 21 -3 45 -8 53
-11 23 -8 200 -38 520 -89 37 -6 169 -24 215 -29 22 -3 58 -8 80 -10 82 -11
202 -25 248 -30 140 -17 151 -18 282 -31 33 -3 78 -8 100 -10 22 -2 72 -7 110
-10 39 -3 90 -8 115 -11 25 -2 79 -7 120 -9 72 -5 117 -9 240 -19 30 -3 100
-8 155 -12 55 -3 118 -8 140 -9 22 -2 92 -6 155 -10 63 -3 147 -7 185 -10 116
-7 273 -15 395 -20 63 -2 183 -7 265 -10 777 -31 1961 -35 2770 -10 417 13
738 27 970 40 44 3 118 7 165 10 47 3 119 7 160 10 41 2 113 7 160 10 47 3
111 8 143 10 31 3 85 7 120 10 34 3 87 7 117 10 30 3 82 7 115 10 77 6 180 15
228 20 20 2 63 7 95 10 31 3 80 8 107 10 28 3 66 7 85 10 19 2 60 7 90 10 30
3 71 8 90 10 19 3 53 7 75 9 83 10 151 18 169 22 10 2 44 6 75 10 31 3 65 8
76 10 10 2 37 6 60 9 22 4 51 8 65 10 14 2 45 7 70 10 25 3 106 17 180 30 74
13 149 27 165 29 17 3 41 8 55 11 14 3 48 10 75 15 28 6 61 13 75 16 14 3 36
7 50 10 212 42 537 146 675 215 289 144 290 294 2 438 -177 88 -557 199 -867
254 -14 3 -63 12 -110 21 -47 8 -98 18 -115 21 -16 2 -39 7 -50 9 -11 2 -42 7
-68 10 -27 4 -56 9 -65 11 -10 1 -37 6 -62 9 -25 3 -56 8 -70 11 -26 4 -327
45 -370 50 -43 4 -154 17 -185 21 -65 8 -139 16 -280 29 -33 3 -76 8 -95 10
-19 2 -64 6 -100 10 -133 11 -186 16 -230 20 -44 4 -173 14 -260 20 -185 12
-344 25 -346 28 -2 1 29 131 67 287 39 157 72 292 74 300 2 8 17 71 35 140 17
69 33 134 35 145 3 11 32 130 66 265 33 135 62 252 64 260 14 63 98 406 110
450 8 30 26 100 39 154 24 95 27 102 83 159 32 33 69 73 83 87 40 43 268 285
329 349 139 145 352 369 381 401 18 19 92 98 165 175 73 77 150 158 171 180
20 22 101 108 180 190 78 83 159 168 179 190 21 22 104 110 185 195 81 85 162
171 180 190 18 19 99 105 180 190 81 85 164 173 185 195 59 64 307 325 345
365 41 42 295 311 335 354 24 26 27 35 22 77 -18 148 -254 422 -468 541 -117
65 -243 94 -304 69z m-4090 -6815 c-6 -29 -3 -36 22 -53 74 -53 261 -84 503
-86 161 -1 298 5 360 18 13 2 42 7 65 11 55 8 144 40 166 60 10 9 21 29 24 44
6 27 8 28 36 18 42 -14 99 -71 99 -98 0 -74 -173 -147 -416 -175 -33 -4 -70
-9 -84 -11 -36 -6 -392 -6 -421 0 -13 3 -50 8 -82 11 -123 12 -290 56 -352 95
-70 44 -80 101 -23 141 25 18 96 57 106 59 2 0 0 -15 -3 -34z"/>
<path d="M7384 19328 c3 -24 8 -65 11 -93 7 -75 15 -151 25 -240 5 -44 12
-102 14 -130 3 -27 10 -93 16 -145 6 -52 13 -117 16 -145 2 -27 7 -68 9 -90 3
-22 7 -65 10 -95 3 -30 8 -68 10 -85 2 -16 6 -57 10 -90 3 -33 10 -100 16
-150 33 -302 38 -349 44 -410 3 -33 8 -76 11 -95 3 -19 7 -57 9 -85 3 -27 8
-72 11 -100 3 -27 7 -66 9 -85 2 -19 6 -55 9 -80 3 -25 8 -72 11 -105 3 -33 8
-76 10 -95 3 -19 7 -62 10 -95 3 -33 8 -71 10 -85 2 -14 7 -54 10 -90 5 -61 8
-86 20 -177 2 -21 7 -67 10 -103 3 -36 7 -76 10 -90 2 -14 6 -50 9 -80 13
-127 37 -347 41 -378 3 -19 8 -66 11 -105 3 -40 7 -79 9 -87 2 -8 7 -46 10
-85 3 -38 7 -83 10 -100 7 -49 21 -174 31 -280 3 -38 8 -77 9 -86 2 -9 6 -52
10 -95 4 -43 9 -81 10 -84 2 -3 6 -41 10 -85 4 -44 8 -91 11 -105 2 -14 6 -54
10 -90 3 -36 8 -78 10 -95 2 -16 6 -55 9 -85 3 -30 8 -73 10 -95 3 -22 7 -62
10 -90 3 -27 7 -68 10 -90 2 -22 7 -67 10 -100 3 -33 8 -76 11 -96 2 -20 7
-59 9 -85 6 -63 15 -142 20 -174 2 -14 6 -55 10 -92 3 -37 7 -75 9 -85 2 -10
7 -52 10 -93 4 -41 9 -88 11 -105 2 -16 7 -57 10 -90 3 -33 8 -78 11 -100 5
-43 9 -80 20 -190 4 -38 8 -77 10 -85 1 -8 3 -24 3 -35 1 -11 32 70 70 180 63
184 97 278 121 330 5 11 27 65 50 120 159 380 395 805 629 1130 43 60 31 44
142 185 379 481 811 814 1204 929 302 89 592 47 856 -124 119 -77 236 -191
347 -340 118 -158 148 -241 144 -400 -5 -205 -143 -346 -298 -304 -68 19 -184
159 -283 343 -221 411 -563 443 -983 93 -78 -64 -235 -220 -309 -307 -112
-131 -349 -456 -349 -479 0 -5 -3 -11 -8 -13 -22 -9 -237 -390 -349 -618 -120
-245 -289 -659 -318 -780 -1 -3 -13 -43 -27 -90 -24 -77 -64 -227 -74 -273 -2
-10 -5 -26 -8 -35 -3 -9 -8 -37 -11 -62 -3 -25 -10 -61 -15 -80 -5 -19 -12
-69 -15 -110 -4 -41 -9 -84 -11 -95 -2 -11 -4 -74 -4 -140 -1 -248 41 -404
134 -503 175 -187 524 -27 1016 467 242 243 487 549 595 745 15 28 92 242 171
478 148 443 178 511 243 557 161 115 354 63 390 -107 9 -44 7 -164 -3 -257
-23 -191 -66 -339 -211 -725 -40 -107 -76 -206 -80 -220 -4 -14 -11 -29 -15
-35 -4 -5 -13 -26 -19 -45 -20 -57 -92 -280 -111 -345 -10 -33 -50 -166 -90
-295 -39 -129 -73 -242 -75 -250 -2 -8 -19 -67 -38 -130 -19 -63 -40 -131 -45
-150 -6 -19 -34 -114 -62 -210 -28 -96 -53 -183 -55 -192 -2 -9 -18 -65 -35
-125 -18 -59 -40 -137 -50 -173 -42 -154 -108 -273 -199 -359 -54 -51 -79 -62
-142 -63 -126 -1 -169 79 -164 309 2 118 7 155 34 253 48 175 151 527 188 640
29 88 85 265 88 280 2 8 17 54 33 103 17 48 26 87 21 87 -5 0 -9 -4 -9 -8 0
-23 -400 -409 -520 -502 -25 -19 -47 -37 -50 -41 -12 -14 -162 -120 -236 -167
-139 -87 -329 -174 -429 -197 -16 -4 -39 -9 -50 -12 -11 -2 -68 -5 -126 -7
-146 -3 -253 24 -361 91 -22 13 -40 19 -43 13 -3 -6 -4 -13 -2 -17 3 -5 8 -48
12 -98 3 -49 8 -97 10 -105 2 -8 7 -58 10 -110 4 -52 8 -102 10 -111 2 -9 6
-52 10 -95 3 -43 8 -95 10 -114 3 -19 7 -64 10 -100 3 -36 8 -81 10 -100 4
-37 11 -112 20 -220 3 -36 8 -81 10 -100 3 -19 7 -62 10 -95 6 -77 19 -210 30
-315 3 -25 7 -71 10 -102 8 -96 15 -168 25 -268 5 -52 12 -124 15 -160 4 -36
8 -81 10 -100 2 -19 6 -64 9 -100 9 -91 16 -168 21 -220 3 -25 7 -74 10 -110
3 -36 7 -85 10 -110 3 -25 7 -69 10 -97 11 -114 16 -159 20 -193 2 -19 7 -71
10 -115 3 -44 7 -96 10 -115 7 -62 15 -144 20 -205 3 -33 7 -80 10 -105 6 -53
12 -116 20 -209 3 -37 7 -76 9 -87 2 -11 7 -62 11 -114 9 -125 21 -144 142
-217 167 -102 468 -216 858 -325 99 -27 187 -51 195 -53 8 -2 80 -19 160 -38
124 -30 374 -84 475 -102 89 -16 384 -67 405 -70 45 -6 115 -17 135 -21 11 -2
39 -6 62 -9 23 -3 58 -7 77 -10 41 -6 81 -11 151 -20 28 -3 64 -8 80 -10 17
-2 55 -7 85 -10 30 -3 71 -7 90 -10 19 -3 60 -7 90 -10 30 -3 75 -7 100 -10
60 -6 148 -13 240 -20 41 -3 95 -8 120 -10 44 -4 205 -14 345 -21 439 -22
1173 -21 1520 1 28 2 102 6 165 10 63 3 135 8 160 10 25 2 83 7 130 10 47 4
99 8 115 10 17 1 66 6 110 9 44 4 94 9 110 11 17 2 57 7 90 10 33 3 76 8 95
11 19 3 60 7 90 10 30 2 66 6 80 9 14 2 45 7 70 10 25 4 56 8 70 10 14 2 45 6
70 10 25 3 72 10 105 15 33 5 119 19 190 30 141 23 144 24 225 40 30 6 69 13
85 15 17 3 75 14 130 25 55 11 110 22 123 25 13 2 31 6 40 9 9 3 28 7 42 10
20 3 222 51 300 70 8 2 38 10 65 16 100 24 453 133 575 177 337 122 548 243
551 316 0 12 2 30 4 39 2 10 6 42 9 70 3 29 10 94 16 143 6 50 13 115 16 145
3 30 7 66 9 80 4 24 12 96 19 170 2 19 9 73 15 120 6 47 13 108 16 135 3 28 7
66 10 85 9 79 16 138 20 180 7 67 15 131 19 165 2 17 7 59 11 95 3 36 8 72 10
80 2 8 6 47 10 85 3 39 8 81 10 95 2 14 6 52 10 85 3 33 8 71 10 85 2 14 6 52
10 84 3 33 8 73 10 90 2 17 7 56 10 86 3 30 7 71 10 90 2 19 6 58 10 85 3 28
10 88 16 135 6 47 12 103 14 125 5 45 14 122 20 175 2 19 7 60 10 90 6 59 12
114 20 170 3 19 8 60 10 91 3 31 7 64 9 75 2 10 7 48 10 84 7 68 11 98 22 190
3 30 8 66 9 80 1 14 5 48 9 75 4 28 8 70 11 95 3 43 10 102 20 180 2 19 7 58
10 85 3 28 8 66 10 85 3 19 7 60 10 90 5 54 11 98 20 170 2 19 7 58 10 85 7
68 14 133 20 175 2 19 7 58 10 85 12 115 15 142 21 190 l6 50 -58 -55 c-32
-30 -61 -57 -64 -60 -349 -329 -675 -565 -911 -659 -139 -55 -220 -71 -384
-76 -309 -11 -479 110 -490 350 -4 100 40 218 140 372 52 79 151 220 165 233
3 3 41 50 85 105 87 110 93 117 156 190 92 107 281 348 327 417 75 112 101
163 108 216 5 42 3 52 -18 77 -20 23 -35 29 -82 33 -260 21 -613 -250 -959
-736 -48 -67 -87 -125 -87 -128 0 -3 -15 -29 -34 -57 -107 -164 -183 -319
-428 -872 -44 -99 -91 -205 -105 -235 -50 -109 -237 -599 -400 -1045 -52 -143
-111 -291 -131 -329 -42 -78 -131 -175 -189 -205 -93 -47 -217 -45 -301 4 -78
46 -103 186 -63 347 32 128 148 418 248 623 19 39 34 70 33 70 -1 0 17 41 40
90 23 50 55 117 70 150 15 33 47 101 70 150 42 89 72 154 131 283 83 180 230
514 227 517 -2 2 -28 -20 -59 -48 -262 -245 -511 -418 -722 -503 -254 -103
-495 -89 -617 37 -39 40 -84 123 -94 172 -3 15 -8 39 -12 53 l-5 27 -22 -21
c-76 -70 -347 -229 -482 -283 -74 -30 -180 -52 -250 -52 -217 -1 -326 145
-319 424 2 94 25 274 41 316 10 27 0 16 -60 -74 -213 -317 -486 -536 -773
-622 -216 -65 -466 -59 -590 14 -137 81 -217 249 -209 439 3 70 14 166 20 176
2 3 6 25 10 48 25 173 239 781 410 1167 89 203 93 211 170 370 82 168 131 233
208 272 170 86 385 -13 378 -175 -2 -67 -32 -141 -141 -352 -274 -533 -382
-789 -426 -1015 -2 -11 -9 -44 -15 -73 -17 -86 -15 -195 6 -241 31 -70 96 -83
244 -50 158 35 384 216 560 448 60 80 191 275 191 285 0 3 15 29 33 58 38 61
180 341 221 438 15 36 31 74 36 85 5 11 27 76 50 145 47 140 55 161 113 279
51 105 126 186 183 197 116 23 199 -18 251 -124 40 -81 38 -174 -6 -292 -18
-47 -33 -89 -35 -95 -2 -5 -8 -21 -13 -35 -6 -14 -21 -50 -33 -80 -12 -30 -32
-77 -44 -105 -13 -27 -43 -95 -66 -150 -23 -55 -50 -118 -60 -140 -62 -139
-150 -388 -194 -545 -41 -151 -58 -342 -35 -393 55 -121 338 -36 631 191 49
38 58 50 69 95 17 73 61 208 104 318 20 52 54 139 76 194 74 194 190 490 199
510 5 11 27 67 50 125 22 58 45 114 49 125 10 22 92 230 224 565 47 118 155
391 240 605 85 215 176 444 202 510 25 66 51 129 56 140 5 11 45 112 89 225
45 113 95 227 113 253 57 85 163 141 268 140 97 -1 175 -48 210 -127 37 -84
24 -198 -36 -329 -45 -100 -194 -444 -275 -637 -45 -107 -88 -208 -95 -225 -8
-16 -32 -75 -55 -130 -22 -55 -45 -109 -50 -120 -5 -11 -30 -72 -55 -135 -25
-63 -50 -124 -55 -135 -25 -55 -142 -348 -141 -353 1 -1 -5 -15 -13 -30 -7
-15 -60 -142 -116 -282 -56 -140 -108 -268 -115 -285 -59 -138 -306 -768 -334
-855 -47 -142 -62 -256 -40 -319 10 -29 24 -38 74 -45 52 -8 211 64 350 157
58 39 208 150 231 172 7 5 29 24 50 40 137 109 287 245 492 443 53 50 99 92
102 92 6 0 33 77 77 225 28 92 125 349 159 422 19 39 34 74 34 77 0 3 21 36
46 74 93 134 131 159 235 149 169 -15 207 -132 141 -433 l-18 -81 100 101 c92
92 132 129 223 208 66 56 208 156 273 191 19 11 55 30 79 44 225 125 530 119
708 -14 115 -85 164 -182 164 -323 0 -274 -193 -603 -701 -1195 -51 -60 -99
-115 -105 -121 -19 -21 -80 -96 -117 -147 -45 -59 -49 -97 -13 -132 55 -56
171 -22 340 100 89 64 269 204 329 256 82 71 134 115 177 151 24 20 55 46 69
58 14 12 45 38 69 58 24 21 55 48 70 62 15 14 43 38 62 54 201 171 239 209
240 243 0 16 2 37 3 48 2 11 6 54 10 95 4 41 9 89 12 105 4 31 11 104 20 190
3 28 7 61 9 75 2 14 7 52 10 85 6 66 11 110 21 200 8 76 9 85 23 225 7 63 14
126 16 139 2 13 7 58 11 100 3 42 8 84 9 93 2 9 7 48 10 85 4 37 8 79 10 93 2
14 7 57 10 95 4 39 9 84 11 100 2 17 6 58 9 91 3 34 7 70 9 80 2 11 7 55 11
99 4 44 9 88 11 98 2 10 6 53 10 95 3 42 7 84 9 92 3 15 12 94 20 180 3 25 7
65 10 90 3 25 8 65 10 90 3 25 9 90 15 145 6 55 12 111 14 125 3 14 7 57 11
95 3 39 8 81 9 95 2 14 7 57 10 95 4 39 9 77 11 85 2 8 6 49 10 90 8 102 13
145 21 210 3 30 8 66 9 80 5 57 17 166 20 180 2 8 6 50 9 92 4 42 9 85 10 95
2 10 7 52 11 93 3 41 8 86 10 100 3 14 7 52 10 85 21 209 26 260 30 285 2 14
7 54 10 90 3 36 8 83 11 105 11 93 15 123 30 275 3 36 7 72 9 80 2 8 6 53 10
100 4 47 8 87 10 90 2 3 6 41 9 85 4 44 9 91 11 105 2 14 6 52 10 85 3 33 8
78 11 100 3 36 6 59 19 175 5 44 14 130 21 195 2 28 7 66 9 85 3 19 7 64 10
100 4 36 8 76 10 90 2 14 6 52 10 85 3 33 8 78 11 101 3 23 7 61 9 85 2 24 6
67 9 94 13 105 16 132 21 190 3 33 8 70 10 83 6 25 -10 29 -40 9 -22 -15 -175
-77 -245 -100 -144 -47 -340 -103 -429 -122 -88 -19 -244 -52 -281 -60 -82
-16 -239 -44 -282 -50 -24 -3 -68 -10 -98 -15 -69 -12 -104 -17 -155 -25 -23
-3 -50 -7 -60 -9 -17 -3 -82 -12 -155 -21 -8 -1 -40 -5 -70 -9 -30 -4 -73 -9
-95 -12 -22 -2 -56 -7 -75 -9 -19 -3 -57 -7 -85 -10 -27 -3 -66 -7 -85 -10
-19 -2 -64 -7 -100 -11 -36 -4 -76 -8 -90 -9 -14 -2 -56 -6 -95 -10 -38 -4
-88 -9 -110 -11 -22 -2 -69 -6 -105 -9 -36 -4 -83 -8 -105 -10 -37 -3 -126
-10 -250 -20 -27 -2 -86 -6 -130 -9 -44 -4 -109 -8 -145 -11 -36 -3 -105 -7
-155 -10 -49 -3 -121 -8 -160 -10 -38 -3 -126 -7 -195 -10 -69 -3 -154 -8
-190 -10 -67 -4 -304 -13 -515 -20 -793 -26 -2047 -26 -2785 0 -234 8 -432 16
-510 20 -250 13 -311 16 -375 20 -38 2 -115 7 -170 10 -55 3 -127 8 -160 10
-33 3 -94 7 -135 10 -41 3 -100 7 -130 10 -30 2 -89 7 -130 10 -41 3 -100 8
-130 11 -30 2 -80 7 -110 9 -30 3 -75 7 -100 10 -25 2 -74 7 -110 10 -75 7
-138 13 -195 20 -22 2 -61 7 -87 10 -27 3 -69 7 -95 10 -27 3 -59 7 -73 10
-14 2 -50 7 -80 10 -70 7 -108 12 -195 25 -38 5 -88 12 -110 15 -22 2 -51 7
-65 10 -14 2 -45 7 -70 10 -25 3 -72 10 -105 16 -33 5 -76 13 -95 15 -19 3
-84 15 -145 26 -60 11 -119 22 -130 24 -11 2 -31 6 -45 9 -14 3 -34 7 -45 9
-359 74 -652 162 -836 251 -29 14 -57 25 -61 25 -5 0 -7 -19 -4 -42z"/>
<path d="M17400 6274 c-100 -41 -376 -133 -505 -168 -217 -60 -553 -142 -650
-160 -16 -3 -113 -21 -215 -41 -102 -20 -212 -41 -245 -46 -33 -5 -71 -12 -85
-14 -44 -8 -203 -34 -250 -40 -25 -3 -74 -11 -110 -16 -36 -6 -81 -12 -100
-14 -48 -5 -117 -14 -149 -19 -14 -3 -55 -7 -91 -11 -36 -4 -76 -8 -90 -10
-24 -3 -81 -9 -197 -21 -32 -3 -74 -7 -93 -9 -19 -2 -73 -7 -120 -11 -47 -3
-101 -7 -120 -9 -31 -3 -134 -10 -318 -20 -452 -26 -1303 -26 -1687 0 -33 2
-105 7 -160 10 -155 9 -342 24 -400 30 -16 2 -59 6 -95 10 -36 3 -81 8 -100
10 -19 2 -62 7 -95 10 -33 3 -71 8 -85 10 -14 2 -52 6 -85 10 -33 3 -71 7 -85
10 -28 5 -113 16 -150 20 -14 1 -38 5 -55 8 -16 4 -52 9 -80 12 -27 3 -61 7
-75 10 -14 3 -41 7 -60 10 -58 9 -152 25 -205 35 -27 5 -61 11 -75 14 -25 4
-171 31 -220 41 -90 18 -139 27 -165 31 -16 3 -36 7 -44 10 -8 3 -73 18 -145
34 -348 79 -692 179 -971 285 -37 14 -69 25 -71 25 -1 0 34 -62 78 -137 44
-76 90 -154 101 -173 10 -19 63 -109 117 -200 54 -91 107 -181 118 -200 10
-19 42 -73 69 -120 221 -377 274 -470 278 -489 2 -11 7 -65 10 -118 4 -54 8
-114 10 -133 2 -19 7 -82 10 -140 4 -58 9 -121 10 -140 2 -19 6 -78 9 -130 4
-52 9 -115 11 -140 2 -25 6 -85 10 -135 3 -49 8 -110 10 -135 2 -25 7 -90 10
-145 3 -55 7 -116 10 -135 3 -19 7 -82 10 -140 4 -58 8 -116 10 -130 2 -14 6
-72 10 -130 4 -58 8 -121 10 -140 2 -19 6 -82 10 -140 4 -58 8 -121 10 -140 2
-19 6 -82 10 -140 4 -58 8 -116 10 -130 2 -14 7 -72 10 -130 3 -58 8 -125 10
-150 7 -83 15 -184 20 -270 3 -47 7 -107 10 -135 5 -49 8 -93 20 -270 3 -49 8
-108 10 -130 2 -22 6 -87 10 -145 4 -58 8 -121 10 -140 2 -19 6 -78 10 -130
10 -162 15 -193 39 -245 83 -178 410 -349 922 -480 94 -24 184 -47 200 -49 16
-3 40 -8 54 -11 38 -8 182 -36 205 -40 11 -2 65 -11 120 -19 55 -9 111 -18
125 -20 14 -3 68 -10 120 -16 52 -6 109 -13 125 -15 28 -4 58 -7 190 -21 152
-15 255 -24 350 -29 33 -2 116 -7 185 -11 257 -17 1207 -10 1450 11 25 2 86 6
135 10 50 3 101 8 115 10 22 3 110 11 215 20 34 3 130 15 154 20 9 1 45 6 81
10 64 6 95 11 135 19 11 2 45 7 75 12 30 4 57 8 60 9 3 1 25 5 50 9 25 4 113
21 195 37 692 139 1157 363 1213 584 9 36 14 89 27 330 3 44 7 123 11 175 3
52 7 131 9 175 2 44 7 123 10 175 11 189 15 257 20 345 3 50 8 126 10 170 6
104 15 263 20 345 2 36 7 118 10 184 3 65 8 142 10 170 2 28 6 107 10 176 3
69 8 145 10 170 2 25 7 101 10 170 3 69 7 150 10 180 2 30 7 107 10 170 3 63
8 144 10 180 2 36 7 112 10 170 3 58 8 134 10 170 2 36 7 115 10 175 3 61 7
139 10 175 2 36 7 117 10 180 12 228 8 210 75 327 33 59 65 115 70 123 59 96
594 1041 588 1039 -2 -1 -41 -16 -88 -35z"/>
</g>
</svg>
